<svg width="114" height="114" viewBox="0 0 114 114" fill="none" xmlns="http://www.w3.org/2000/svg">
<g filter="url(#filter0_d_390_122)">
<rect x="21" y="13" width="72" height="72" rx="13" fill="#F66742"/>
</g>
<path d="M44.498 47.6678C43.8767 47.6695 43.2686 47.8471 42.744 48.1801C42.2195 48.513 41.7999 48.9877 41.5338 49.5491C41.2677 50.1106 41.166 50.7359 41.2405 51.3527C41.315 51.9696 41.5626 52.5527 41.9547 53.0347L50.3129 63.2735C50.611 63.6435 50.993 63.9371 51.4272 64.1299C51.8615 64.3227 52.3355 64.409 52.8098 64.3818C53.8243 64.3273 54.7403 63.7846 55.3242 62.8923L72.6864 34.9306C72.6893 34.9259 72.6922 34.9213 72.6953 34.9167C72.8582 34.6666 72.8053 34.1709 72.4691 33.8595C72.3767 33.774 72.2678 33.7083 72.1491 33.6664C72.0304 33.6246 71.9043 33.6075 71.7788 33.6162C71.6532 33.6249 71.5307 33.6593 71.4189 33.7171C71.3071 33.7749 71.2083 33.855 71.1286 33.9525C71.1224 33.9601 71.116 33.9677 71.1094 33.9751L53.5994 53.7588C53.5328 53.8341 53.4518 53.8953 53.3613 53.9391C53.2708 53.9828 53.1725 54.0082 53.0721 54.0136C52.9717 54.019 52.8713 54.0045 52.7766 53.9707C52.6819 53.937 52.5948 53.8848 52.5204 53.8171L46.7092 48.5289C46.1057 47.9756 45.3168 47.6684 44.498 47.6678Z" fill="white"/>
<defs>
<filter id="filter0_d_390_122" x="0" y="0" width="114" height="114" filterUnits="userSpaceOnUse" color-interpolation-filters="sRGB">
<feFlood flood-opacity="0" result="BackgroundImageFix"/>
<feColorMatrix in="SourceAlpha" type="matrix" values="0 0 0 0 0 0 0 0 0 0 0 0 0 0 0 0 0 0 127 0" result="hardAlpha"/>
<feOffset dy="8"/>
<feGaussianBlur stdDeviation="10.5"/>
<feComposite in2="hardAlpha" operator="out"/>
<feColorMatrix type="matrix" values="0 0 0 0 0.654902 0 0 0 0 0.807843 0 0 0 0 0.290196 0 0 0 0.25 0"/>
<feBlend mode="normal" in2="BackgroundImageFix" result="effect1_dropShadow_390_122"/>
<feBlend mode="normal" in="SourceGraphic" in2="effect1_dropShadow_390_122" result="shape"/>
</filter>
</defs>
</svg>
