<svg width="40" height="40" viewBox="0 0 40 40" fill="none" xmlns="http://www.w3.org/2000/svg">
<g clip-path="url(#clip0_619_179)">
<g clip-path="url(#clip1_619_179)">
<path d="M1.11714 22.891L3.72741 23.3188C4.13981 25.3175 4.92903 27.2195 6.0529 28.923L4.50712 31.0804C4.35097 31.293 4.2679 31.5504 4.27035 31.8142C4.27279 32.078 4.36063 32.3338 4.5207 32.5435C4.91048 33.0199 5.32461 33.4759 5.76143 33.9096C6.20211 34.351 6.65636 34.7578 7.12421 35.151C7.33398 35.3114 7.59012 35.3994 7.85418 35.4019C8.11824 35.4043 8.37597 35.3211 8.58869 35.1646L10.7447 33.6181C12.4465 34.7426 14.3472 35.5324 16.3449 35.945L16.772 38.5573C16.8116 38.8173 16.935 39.0574 17.1234 39.2409C17.3119 39.4245 17.5551 39.5415 17.8161 39.5742C18.1876 39.6163 18.5619 39.642 18.9443 39.661C19.0362 39.6655 19.1281 39.6514 19.2144 39.6195C19.3007 39.5876 19.3796 39.5385 19.4465 39.4753C19.5134 39.4121 19.5668 39.3361 19.6035 39.2517C19.6402 39.1673 19.6595 39.0764 19.6602 38.9844V33.551C19.6593 33.3748 19.5901 33.2057 19.4673 33.0793C19.3444 32.9529 19.1774 32.879 19.0013 32.873C12.1499 32.5178 6.77677 26.859 6.77677 19.9984C6.77677 13.1378 12.1499 7.47897 19.0013 7.1238C19.1774 7.11783 19.3444 7.0439 19.4673 6.9175C19.5901 6.7911 19.6593 6.62205 19.6602 6.44579V1.01713C19.6598 0.925156 19.6407 0.834229 19.6042 0.749812C19.5677 0.665394 19.5145 0.58923 19.4478 0.525897C19.3811 0.462564 19.3023 0.41337 19.2161 0.381272C19.1299 0.349175 19.0381 0.334836 18.9463 0.339119C18.5688 0.354702 18.1919 0.381375 17.816 0.419105C17.5548 0.454701 17.312 0.573716 17.1239 0.75843C16.9358 0.943145 16.8123 1.18368 16.772 1.44422L16.3448 4.05652C14.3472 4.46969 12.4466 5.25961 10.7446 6.38404L8.58862 4.83689C8.37591 4.68039 8.11818 4.59712 7.85412 4.59957C7.59005 4.60202 7.33391 4.69006 7.12414 4.85047C6.64902 5.24077 6.19417 5.6551 5.76136 6.09186C5.32128 6.52243 4.90698 6.97859 4.52063 7.45798C4.35991 7.66786 4.27169 7.92426 4.26924 8.18861C4.26679 8.45295 4.35025 8.71094 4.50705 8.92377L6.05283 11.0812C4.92921 12.7841 4.14 14.6853 3.72734 16.6834L1.11708 17.1105C0.856946 17.1503 0.616882 17.2738 0.433337 17.4623C0.249792 17.6509 0.13279 17.8942 0.100097 18.1553C-0.0333656 19.372 -0.0333656 20.5997 0.100097 21.8164C0.129444 22.0819 0.244666 22.3305 0.428245 22.5244C0.611823 22.7184 0.853715 22.8471 1.11714 22.891Z" fill="white"/>
<path d="M19.0113 9.85135C13.655 10.1906 9.48438 14.6338 9.48438 20.0008C9.48438 25.3678 13.655 29.811 19.0113 30.1503C19.0956 30.1538 19.1798 30.1401 19.2587 30.1101C19.3376 30.08 19.4095 30.0343 19.4702 29.9755C19.5308 29.9168 19.5788 29.8463 19.6114 29.7684C19.6439 29.6906 19.6603 29.6069 19.6594 29.5224V10.4792C19.6603 10.3947 19.6439 10.311 19.6114 10.2332C19.5788 10.1553 19.5308 10.0848 19.4702 10.0261C19.4095 9.96734 19.3376 9.92156 19.2587 9.89153C19.1798 9.86149 19.0956 9.84782 19.0113 9.85135ZM24.4053 10.509H21.0154V11.865H24.4053C25.5273 11.8616 26.436 10.953 26.4393 9.83101V5.63835C27.3733 5.30817 27.9335 4.35313 27.766 3.37677C27.5985 2.40041 26.752 1.68677 25.7613 1.68677C24.7707 1.68677 23.9241 2.40041 23.7566 3.37677C23.5891 4.35313 24.1493 5.30817 25.0833 5.63835V9.83101C25.0833 10.2055 24.7798 10.509 24.4053 10.509ZM21.0154 14.5769H27.7953C28.1697 14.5769 28.4733 14.2734 28.4733 13.8989C28.4733 13.5245 28.1697 13.2209 27.7953 13.2209H21.0154V14.5769ZM21.0154 29.4926H24.4053C24.7798 29.4926 25.0833 29.7961 25.0833 30.1706V34.3633C24.1493 34.6934 23.5891 35.6485 23.7566 36.6248C23.9241 37.6012 24.7706 38.3148 25.7613 38.3148C26.7519 38.3148 27.5985 37.6012 27.766 36.6248C27.9335 35.6485 27.3733 34.6934 26.4393 34.3633V30.1706C26.436 29.0486 25.5273 28.14 24.4053 28.1366H21.0154V29.4926H21.0154ZM31.1852 22.7128H21.0154V24.0687H31.1852C31.5596 24.0687 31.8632 24.3723 31.8632 24.7467V28.2614C30.9292 28.5916 30.369 29.5467 30.5365 30.523C30.704 31.4994 31.5505 32.213 32.5412 32.213C33.5318 32.213 34.3784 31.4994 34.5459 30.523C34.7134 29.5467 34.1532 28.5916 33.2192 28.2614V24.7467C33.2158 23.6248 32.3071 22.7161 31.1852 22.7128ZM37.9651 17.9668C37.5459 17.9686 37.1375 18.0998 36.7957 18.3425C36.454 18.5852 36.1956 18.9276 36.0558 19.3228H21.0154V20.6787H36.0558C36.4023 21.6514 37.4235 22.2092 38.4291 21.9751C39.4347 21.7409 40.1045 20.7895 39.9858 19.7639C39.8671 18.7383 38.9975 17.965 37.9651 17.9668Z" fill="white"/>
<path d="M28.4736 26.1026C28.4736 25.7281 28.17 25.4246 27.7956 25.4246H21.0157V26.7806H27.7956C28.17 26.7806 28.4736 26.4771 28.4736 26.1026ZM33.2194 15.2549V11.7402C34.1534 11.41 34.7137 10.4549 34.5461 9.47858C34.3786 8.50221 33.5321 7.78857 32.5414 7.78857C31.5508 7.78857 30.7043 8.50221 30.5367 9.47858C30.3692 10.4549 30.9295 11.41 31.8634 11.7402V15.2549C31.8634 15.6293 31.5599 15.9329 31.1854 15.9329H21.0156V17.2888H31.1854C32.3075 17.2854 33.2161 16.3768 33.2194 15.2549Z" fill="white"/>
</g>
</g>
<defs>
<clipPath id="clip0_619_179">
<rect width="40" height="40" fill="white"/>
</clipPath>
<clipPath id="clip1_619_179">
<rect width="40" height="40" fill="white"/>
</clipPath>
</defs>
</svg>
