<svg width="70" height="91" viewBox="0 0 70 91" fill="none" xmlns="http://www.w3.org/2000/svg">
<g clip-path="url(#clip0_525_12)">
<path fill-rule="evenodd" clip-rule="evenodd" d="M10.9473 0H40.7317C43.7512 0 46.5068 1.23214 48.4707 3.21118C50.4619 5.20469 51.6769 7.94544 51.6769 10.95V17.4009C51.2589 17.3815 50.8385 17.3704 50.4155 17.3704C49.6609 17.3704 48.9141 17.4036 48.1755 17.4653V10.8451H3.48607V75.0553H48.1755V70.4452C48.9141 70.5069 49.6609 70.5399 50.4155 70.5399C50.8362 70.5395 51.2567 70.5294 51.6769 70.5096V79.3141C51.6769 82.3359 50.4471 85.0914 48.4707 87.053C46.4744 89.0492 43.7364 90.2614 40.7317 90.2614H10.9473C7.92552 90.2614 5.17013 89.0321 3.20854 87.053C1.21486 85.0616 0 82.3211 0 79.3141V10.9352C0 7.913 1.22985 5.15761 3.20854 3.19373C5.19975 1.20234 7.92552 0 10.9473 0ZM25.8247 78.4804C28.3013 78.4804 30.325 80.4743 30.325 82.9807C30.325 85.4599 28.3315 87.4836 25.8247 87.4836C23.3481 87.4836 21.3218 85.4899 21.3218 82.9807C21.3218 80.5067 23.3158 78.4804 25.8247 78.4804Z" fill="#1A1A1A"/>
<path fill-rule="evenodd" clip-rule="evenodd" d="M50.4157 24.3706C61.2356 24.3706 70.0002 33.1407 70.0002 43.9551C70.0002 54.7749 61.2299 63.5396 50.4157 63.5396C39.5959 63.5396 30.8311 54.7693 30.8311 43.9551C30.8311 33.1349 39.6013 24.3706 50.4157 24.3706ZM44.0852 41.0948L47.5567 44.3731L56.2649 35.554C56.9449 34.8636 57.3711 34.3101 58.2088 35.173L60.9288 37.9594C61.8224 38.8428 61.7767 39.3603 60.9344 40.1825L49.1099 51.8238C47.3334 53.565 47.6429 53.6717 45.8412 51.885L39.5075 45.5864C39.1316 45.1802 39.1722 44.7693 39.583 44.3633L42.7404 41.0891C43.2188 40.5856 43.5998 40.6295 44.0852 41.0948Z" fill="#00A912"/>
</g>
<defs>
<clipPath id="clip0_525_12">
<rect width="70" height="90.2614" fill="white"/>
</clipPath>
</defs>
</svg>
