<svg width="48" height="56" viewBox="0 0 48 56" fill="none" xmlns="http://www.w3.org/2000/svg">
<path d="M10 0C4.494 0 0 4.494 0 10V46C0 51.506 4.494 56 10 56H46C46.5304 56 47.0391 55.7893 47.4142 55.4142C47.7893 55.0391 48 54.5304 48 54V10C48 9.46957 47.7893 8.96086 47.4142 8.58579C47.0391 8.21071 46.5304 8 46 8H40V2C40 1.46957 39.7893 0.960859 39.4142 0.585786C39.0391 0.210714 38.5304 0 38 0H10ZM40 12H44V52H10C6.64 52 4 49.36 4 46C4 42.64 6.64 40 10 40H38C38.5304 40 39.0391 39.7893 39.4142 39.4142C39.7893 39.0391 40 38.5304 40 38V12Z" fill="#F66742"/>
<path d="M37.9447 44H10.0007C7.29666 43.96 7.29666 48.038 10.0007 48H37.9447C38.2114 48.0041 38.4763 47.9546 38.7236 47.8546C38.971 47.7547 39.1958 47.6061 39.3848 47.4179C39.5738 47.2296 39.7232 47.0054 39.8242 46.7584C39.9251 46.5115 39.9756 46.2468 39.9727 45.98C39.9695 45.7169 39.9146 45.4569 39.811 45.215C39.7073 44.973 39.5571 44.7539 39.3688 44.57C39.1805 44.3861 38.9578 44.2412 38.7134 44.1434C38.4691 44.0456 38.2078 43.9969 37.9447 44Z" fill="#F66742"/>
<path d="M37.9447 44H10.0007C7.29666 43.96 7.29666 48.038 10.0007 48H37.9447C38.2114 48.0041 38.4763 47.9546 38.7236 47.8546C38.971 47.7547 39.1958 47.6061 39.3848 47.4179C39.5738 47.2296 39.7232 47.0054 39.8242 46.7584C39.9251 46.5115 39.9756 46.2468 39.9727 45.98C39.9695 45.7169 39.9146 45.4569 39.811 45.215C39.7073 44.973 39.5571 44.7539 39.3688 44.57C39.1805 44.3861 38.9578 44.2412 38.7134 44.1434C38.4691 44.0456 38.2078 43.9969 37.9447 44Z" fill="#F66742"/>
</svg>
