<svg width="40" height="40" viewBox="0 0 40 40" fill="none" xmlns="http://www.w3.org/2000/svg">
<path d="M20 40C31.0457 40 40 31.0457 40 20C40 8.95431 31.0457 0 20 0C8.95431 0 0 8.95431 0 20C0 31.0457 8.95431 40 20 40Z" fill="#F20000"/>
<path d="M29.5317 15.1895C29.1317 13.9474 27.808 13.2131 26.579 13.0421C22.1984 12.5763 17.7807 12.5763 13.4001 13.0421C12.1817 13.2131 10.858 13.9579 10.458 15.1895C9.83432 18.367 9.83432 21.6356 10.458 24.8131C10.8685 26.0526 12.1922 26.7895 13.4211 26.9605C17.8019 27.4237 22.2193 27.4237 26.6001 26.9605C27.8185 26.7895 29.1422 26.0421 29.5422 24.8131C30.1624 21.6349 30.1588 18.3664 29.5317 15.1895ZM17.608 23.8316V16.1684L23.8475 20C21.7448 21.2921 19.7027 22.55 17.608 23.8316Z" fill="white"/>
</svg>
