<svg width="114" height="114" viewBox="0 0 114 114" fill="none" xmlns="http://www.w3.org/2000/svg">
<g filter="url(#filter0_d_390_224)">
<rect x="21" y="13" width="72" height="72" rx="13" fill="#A7CE4A"/>
</g>
<path d="M53.125 51.2624H45.75C45.05 51.2624 44.5 50.7124 44.5 50.0124C44.5 49.3249 45.05 48.7624 45.75 48.7624H51.65C51.3 48.0124 51.025 47.2249 50.825 46.3999H45.75C45.05 46.3999 44.5 45.8374 44.5 45.1499C44.5 44.4624 45.05 43.8999 45.75 43.8999H50.4625C50.45 43.6874 50.45 43.4874 50.45 43.2749C50.45 41.7874 50.7 40.3624 51.15 39.0249H44C41.5125 39.0249 39.5 41.0499 39.5 43.5249V56.4999C39.5003 57.6098 39.9118 58.6802 40.6552 59.5044C41.3986 60.3286 42.421 60.848 43.525 60.9624V63.5999C43.524 63.8497 43.5725 64.0972 43.6676 64.3282C43.7627 64.5591 43.9027 64.769 44.0793 64.9456C44.2559 65.1222 44.4658 65.2622 44.6967 65.3573C44.9277 65.4524 45.1752 65.5009 45.425 65.4999C45.85 65.4999 46.2625 65.3624 46.6 65.0874L49.4125 62.8749C50.9531 61.6551 52.8599 60.9901 54.825 60.9874H63.475C65.95 60.9874 67.975 58.9749 67.975 56.4999V55.8499C65.3319 56.7453 62.4736 56.7839 59.8073 55.9602C57.141 55.1366 54.8025 53.4926 53.125 51.2624ZM53.7375 56.1374H45.75C45.05 56.1374 44.5 55.5749 44.5 54.8874C44.5 54.1999 45.05 53.6374 45.75 53.6374H53.7375C54.425 53.6374 54.9875 54.1999 54.9875 54.8874C54.9875 55.5749 54.425 56.1374 53.7375 56.1374Z" fill="white"/>
<path d="M63.7252 32.5C57.7752 32.5 52.9502 37.3375 52.9502 43.275C52.9502 46.1327 54.0854 48.8734 56.1061 50.8941C58.1268 52.9148 60.8675 54.05 63.7252 54.05C69.6627 54.05 74.5002 49.225 74.5002 43.275C74.5002 37.3375 69.6627 32.5 63.7252 32.5ZM63.7127 50.2125C63.0252 50.2125 62.4627 49.65 62.4627 48.9625C62.4627 48.275 63.0127 47.7125 63.7002 47.7125H63.7127C64.4002 47.7125 64.9627 48.275 64.9627 48.9625C64.9627 49.65 64.4002 50.2125 63.7127 50.2125ZM64.9752 44.4375V45.2C64.9752 45.8875 64.4127 46.45 63.7252 46.45C63.0377 46.45 62.4752 45.8875 62.4752 45.2V43.425C62.4752 42.7375 63.0377 42.175 63.7252 42.175C64.3127 42.175 64.8002 41.7 64.8002 41.1C64.8002 40.5125 64.3127 40.0375 63.7252 40.0375C63.1377 40.0375 62.6502 40.5125 62.6502 41.1C62.6502 41.8 62.0877 42.35 61.4002 42.35C60.7127 42.35 60.1502 41.8 60.1502 41.1C60.1502 39.1375 61.7502 37.5375 63.7252 37.5375C65.6877 37.5375 67.3002 39.1375 67.3002 41.1C67.3002 42.6375 66.3252 43.925 64.9752 44.4375Z" fill="white"/>
<defs>
<filter id="filter0_d_390_224" x="0" y="0" width="114" height="114" filterUnits="userSpaceOnUse" color-interpolation-filters="sRGB">
<feFlood flood-opacity="0" result="BackgroundImageFix"/>
<feColorMatrix in="SourceAlpha" type="matrix" values="0 0 0 0 0 0 0 0 0 0 0 0 0 0 0 0 0 0 127 0" result="hardAlpha"/>
<feOffset dy="8"/>
<feGaussianBlur stdDeviation="10.5"/>
<feComposite in2="hardAlpha" operator="out"/>
<feColorMatrix type="matrix" values="0 0 0 0 0.654902 0 0 0 0 0.807843 0 0 0 0 0.290196 0 0 0 0.25 0"/>
<feBlend mode="normal" in2="BackgroundImageFix" result="effect1_dropShadow_390_224"/>
<feBlend mode="normal" in="SourceGraphic" in2="effect1_dropShadow_390_224" result="shape"/>
</filter>
</defs>
</svg>
