<svg width="114" height="114" viewBox="0 0 114 114" fill="none" xmlns="http://www.w3.org/2000/svg">
<g filter="url(#filter0_d_390_238)">
<rect x="21" y="13" width="72" height="72" rx="13" fill="#4D93DF"/>
</g>
<path d="M53.5796 59.125H60.4204C60.6431 57.0973 61.6779 55.4235 63.3578 53.5944C63.547 53.3885 64.7605 52.1327 64.9044 51.9533C66.3349 50.1696 67.125 47.9622 67.125 45.625C67.125 40.0331 62.5919 35.5 57 35.5C51.4081 35.5 46.875 40.0331 46.875 45.625C46.875 47.961 47.6643 50.1672 49.0934 51.9504C49.2376 52.1303 50.4539 53.3895 50.6407 53.593C52.3217 55.4233 53.3567 57.0973 53.5796 59.125ZM60.375 62.5H53.625V64.1875H60.375V62.5ZM46.4598 54.0611C44.6078 51.7501 43.5 48.8169 43.5 45.625C43.5 38.1692 49.5442 32.125 57 32.125C64.4559 32.125 70.5 38.1692 70.5 45.625C70.5 48.8186 69.391 51.7532 67.5373 54.0649C66.4905 55.37 63.75 57.4375 63.75 59.9688V64.1875C63.75 66.0515 62.239 67.5625 60.375 67.5625H53.625C51.761 67.5625 50.25 66.0515 50.25 64.1875V59.9688C50.25 57.4375 47.5071 55.368 46.4598 54.0611ZM58.6875 45.6331H62.9062L55.3125 55.7581V49.0081H51.0938L58.6875 38.875V45.6331Z" fill="white"/>
<defs>
<filter id="filter0_d_390_238" x="0" y="0" width="114" height="114" filterUnits="userSpaceOnUse" color-interpolation-filters="sRGB">
<feFlood flood-opacity="0" result="BackgroundImageFix"/>
<feColorMatrix in="SourceAlpha" type="matrix" values="0 0 0 0 0 0 0 0 0 0 0 0 0 0 0 0 0 0 127 0" result="hardAlpha"/>
<feOffset dy="8"/>
<feGaussianBlur stdDeviation="10.5"/>
<feComposite in2="hardAlpha" operator="out"/>
<feColorMatrix type="matrix" values="0 0 0 0 0.654902 0 0 0 0 0.807843 0 0 0 0 0.290196 0 0 0 0.25 0"/>
<feBlend mode="normal" in2="BackgroundImageFix" result="effect1_dropShadow_390_238"/>
<feBlend mode="normal" in="SourceGraphic" in2="effect1_dropShadow_390_238" result="shape"/>
</filter>
</defs>
</svg>
