<svg width="50" height="50" viewBox="0 0 50 50" fill="none" xmlns="http://www.w3.org/2000/svg">
<circle cx="25" cy="25" r="23.5" fill="#007BB3" stroke="#FFF9F9" stroke-width="3"/>
<g clip-path="url(#clip0_696_21)">
<path d="M27.351 18.3592L16.3468 29.3642C16.2914 29.4198 16.2519 29.4892 16.2324 29.5652L15.0127 34.4609C14.9947 34.5336 14.9958 34.6096 15.0159 34.6817C15.0359 34.7538 15.0742 34.8196 15.127 34.8725C15.2082 34.9534 15.3181 34.9989 15.4327 34.999C15.4681 34.999 15.5033 34.9946 15.5376 34.986L20.4333 33.7661C20.5094 33.747 20.5789 33.7075 20.6343 33.6519L31.6395 22.6476L27.351 18.3592ZM34.3657 16.8586L33.1408 15.6337C32.3221 14.815 30.8952 14.8159 30.0774 15.6337L28.5769 17.1343L32.8652 21.4225L34.3657 19.922C34.7747 19.5133 34.9999 18.9691 34.9999 18.3904C34.9999 17.8118 34.7747 17.2676 34.3657 16.8586Z" fill="white"/>
</g>
<defs>
<clipPath id="clip0_696_21">
<rect width="20" height="20" fill="white" transform="translate(15 15)"/>
</clipPath>
</defs>
</svg>
