<svg width="56" height="56" viewBox="0 0 56 56" fill="none" xmlns="http://www.w3.org/2000/svg">
<g clip-path="url(#clip0_3007_438)">
<path d="M40.6807 16.198L29.6408 11.9591V8.2038H35.8005C36.6741 8.2038 37.1952 7.23014 36.7105 6.50335L36.0613 5.52958C35.9415 5.3499 35.8775 5.13878 35.8775 4.92282C35.8775 4.70687 35.9415 4.49574 36.0613 4.31606L36.7105 3.3423C37.1952 2.6155 36.6741 1.64185 35.8005 1.64185H29.6408C29.6408 0.735783 28.9063 0.0012207 28.0002 0.0012207C27.0942 0.0012207 26.3596 0.735783 26.3596 1.64185V11.9591L15.3197 16.198H40.6807ZM1.64062 22.7605C2.99436 22.7605 3.06294 24.127 3.06294 24.401C3.06294 24.675 2.99436 26.0415 1.64062 26.0415H54.3594C53.19 26.0415 53.1562 24.5689 53.1562 24.401C53.1562 24.2331 53.19 22.7605 54.3594 22.7605C55.2654 22.7605 56 22.026 56 21.1199C56 20.2138 55.2654 19.4793 54.3594 19.4793H1.64062C0.734562 19.4793 0 20.2138 0 21.1199C0 22.026 0.734562 22.7605 1.64062 22.7605ZM27.9383 46.9227C27.0337 46.9227 26.2977 47.6586 26.2977 48.5632V55.9989H29.5789V48.5632C29.5789 47.6585 28.843 46.9227 27.9383 46.9227ZM40.5163 55.9989H54.3594C55.2654 55.9989 56 55.2644 56 54.3583V29.3228H40.5163V55.9989ZM46.1369 36.5327C46.1369 35.6266 46.8715 34.8921 47.7775 34.8921C48.6836 34.8921 49.4181 35.6266 49.4181 36.5327V38.7201C49.4181 39.6261 48.6836 40.3607 47.7775 40.3607C46.8715 40.3607 46.1369 39.6261 46.1369 38.7201V36.5327ZM46.1369 45.282C46.1369 44.376 46.8715 43.6414 47.7775 43.6414C48.6836 43.6414 49.4181 44.376 49.4181 45.282V47.4694C49.4181 48.3755 48.6836 49.1101 47.7775 49.1101C46.8715 49.1101 46.1369 48.3755 46.1369 47.4694V45.282Z" fill="#007BB3"/>
<path d="M18.6411 55.9989H23.016V48.5631C23.016 45.8492 25.224 43.6414 27.9379 43.6414C30.6519 43.6414 32.8597 45.8493 32.8597 48.5631V55.9989H37.2346V29.3228H18.6411V55.9989ZM29.7224 36.5326C29.7224 35.6266 30.457 34.892 31.3631 34.892C32.2691 34.892 33.0037 35.6266 33.0037 36.5326V38.72C33.0037 39.6261 32.2691 40.3607 31.3631 40.3607C30.457 40.3607 29.7224 39.6261 29.7224 38.72V36.5326ZM22.9959 36.5326C22.9959 35.6266 23.7304 34.892 24.6365 34.892C25.5426 34.892 26.2771 35.6266 26.2771 36.5326V38.72C26.2771 39.6261 25.5426 40.3607 24.6365 40.3607C23.7304 40.3607 22.9959 39.6261 22.9959 38.72V36.5326ZM0 54.3583C0 55.2643 0.734562 55.9989 1.64062 55.9989H15.3599V29.3228H0V54.3583ZM6.1717 36.5326C6.1717 35.6266 6.90627 34.892 7.81233 34.892C8.71839 34.892 9.45295 35.6266 9.45295 36.5326V38.72C9.45295 39.6261 8.71839 40.3607 7.81233 40.3607C6.90627 40.3607 6.1717 39.6261 6.1717 38.72V36.5326ZM6.1717 45.282C6.1717 44.3759 6.90627 43.6414 7.81233 43.6414C8.71839 43.6414 9.45295 44.3759 9.45295 45.282V47.4694C9.45295 48.3754 8.71839 49.11 7.81233 49.11C6.90627 49.11 6.1717 48.3754 6.1717 47.4694V45.282Z" fill="#007BB3"/>
</g>
<defs>
<clipPath id="clip0_3007_438">
<rect width="56" height="56" fill="white"/>
</clipPath>
</defs>
</svg>
