<svg width="40" height="40" viewBox="0 0 40 40" fill="none" xmlns="http://www.w3.org/2000/svg">
<path d="M22.6597 25.5042C22.6512 25.5762 22.658 25.6492 22.6797 25.7184C22.7015 25.7876 22.7377 25.8514 22.7859 25.9056C22.8341 25.9598 22.8932 26.0032 22.9594 26.0328C23.0256 26.0625 23.0973 26.0778 23.1699 26.0777H24.8001C24.9255 26.0779 25.0466 26.0322 25.1406 25.9492C25.2346 25.8662 25.295 25.7516 25.3103 25.6272L26.0846 19.3985C26.1339 19.0017 26.0785 18.5989 25.9238 18.2301C25.7692 17.8614 25.5207 17.5395 25.2031 17.2966L22.911 15.5434L23.8242 11.3834L25.4227 12.4581C25.9321 12.8 26.585 12.8408 27.1329 12.5638L31.8325 10.1902C31.8954 10.1584 31.9511 10.114 31.9961 10.0598C32.0411 10.0056 32.0745 9.94263 32.0941 9.87494C32.1137 9.80724 32.1191 9.73624 32.1101 9.66635C32.1011 9.59645 32.0778 9.52917 32.0416 9.46868L31.231 8.11321C31.1656 8.00326 31.0614 7.92172 30.939 7.88458C30.8165 7.84745 30.6846 7.85739 30.5691 7.91246L26.2069 9.99472L24.7623 8.9268C24.5106 8.74082 24.2192 8.61578 23.911 8.56151L19.4506 7.77434C19.1402 7.71964 18.8213 7.73825 18.5193 7.82868L15.2386 9.13963C14.7789 9.32331 14.3884 9.6467 14.1223 10.0642L12.4929 12.6204C12.4216 12.7321 12.3963 12.8672 12.4223 12.9972C12.4484 13.1272 12.5237 13.242 12.6325 13.3177L13.8137 13.9366C13.8705 13.9762 13.9349 14.0038 14.0027 14.0178C14.0706 14.0319 14.1406 14.032 14.2085 14.0182C14.2764 14.0045 14.3408 13.9771 14.3979 13.9378C14.4549 13.8985 14.5034 13.848 14.5404 13.7894L15.9616 11.5426L18.662 10.7487L16.1201 19.1276L12.0182 23.12C11.9247 23.2111 11.8695 23.3344 11.8638 23.4648C11.858 23.5952 11.9022 23.7229 11.9872 23.8219L13.265 25.3087C13.3104 25.3617 13.3662 25.4048 13.4289 25.4355C13.4916 25.4662 13.5599 25.4838 13.6296 25.4872C13.6994 25.4906 13.769 25.4797 13.8344 25.4553C13.8998 25.4308 13.9595 25.3932 14.0099 25.3449L18.4235 21.1132L20.0121 16.7842L23.3872 19.2468L22.6597 25.5042Z" fill="white"/>
<path d="M22.5843 7.61506C24.114 7.61506 25.3541 6.37498 25.3541 4.84525C25.3541 3.31553 24.114 2.07544 22.5843 2.07544C21.0545 2.07544 19.8145 3.31553 19.8145 4.84525C19.8145 6.37498 21.0545 7.61506 22.5843 7.61506Z" fill="white"/>
<path d="M2.4082 33.8642V37.9246H10.6346V32.5736H3.69877C2.98179 32.5736 2.4082 33.1548 2.4082 33.8642ZM11.3893 31.0944V37.9246H19.6233V29.8038H12.6799C11.9705 29.8038 11.3893 30.385 11.3893 31.0944ZM20.378 27.4038V37.9246H28.612V26.1133H21.6686C20.9591 26.1133 20.378 26.6944 20.378 27.4038ZM36.3025 21.2001H30.6573C29.9403 21.2001 29.3667 21.7812 29.3667 22.4906V37.9246H37.5931V22.4906C37.5931 21.7812 37.012 21.2001 36.3025 21.2001ZM34.0029 15.508C33.9887 15.556 33.9841 15.6063 33.9895 15.6561C33.9949 15.7059 34.0101 15.7541 34.0344 15.798C34.0586 15.8418 34.0913 15.8804 34.1306 15.9114C34.1698 15.9425 34.2149 15.9654 34.2631 15.9789C34.3114 15.9924 34.3618 15.9961 34.4115 15.9899C34.4612 15.9837 34.5091 15.9676 34.5526 15.9427C34.596 15.9178 34.634 15.8844 34.6644 15.8447C34.6948 15.8049 34.717 15.7594 34.7297 15.711L35.2157 13.9691C35.2425 13.8729 35.23 13.7701 35.181 13.6831C35.1321 13.5961 35.0507 13.5321 34.9546 13.505L33.2135 13.0182C33.1171 12.9911 33.0139 13.0035 32.9267 13.0526C32.8394 13.1016 32.7752 13.1833 32.7482 13.2797C32.7212 13.3761 32.7336 13.4792 32.7826 13.5665C32.8316 13.6537 32.9133 13.7179 33.0097 13.745L33.8376 13.9767L28.5395 16.8061C28.4935 16.8281 28.4525 16.8592 28.4189 16.8975C28.3852 16.9358 28.3597 16.9805 28.3438 17.0289C28.3279 17.0774 28.322 17.1285 28.3265 17.1793C28.3309 17.2301 28.3456 17.2795 28.3696 17.3244C28.3936 17.3694 28.4265 17.409 28.4663 17.4409C28.5061 17.4728 28.5519 17.4963 28.601 17.51C28.6501 17.5237 28.7014 17.5273 28.752 17.5206C28.8025 17.5139 28.8512 17.497 28.895 17.471L34.2535 14.6099L34.0029 15.508Z" fill="white"/>
</svg>
