<svg width="40" height="40" viewBox="0 0 40 40" fill="none" xmlns="http://www.w3.org/2000/svg">
<path d="M20 13.2812C23.6675 13.2812 26.6406 10.3081 26.6406 6.64062C26.6406 2.97311 23.6675 0 20 0C16.3325 0 13.3594 2.97311 13.3594 6.64062C13.3594 10.3081 16.3325 13.2812 20 13.2812Z" fill="white"/>
<path d="M24.8796 14.1809C23.4736 15.094 21.7977 15.625 20 15.625C18.2023 15.625 16.5264 15.094 15.1204 14.1809C13.5572 14.7783 12.1172 15.658 10.872 16.7759L20 20.199L29.128 16.7759C27.8828 15.6579 26.4428 14.7783 24.8796 14.1809ZM34.0625 24.2188H33.2812C32.6341 24.2188 32.1094 24.7435 32.1094 25.3907V28.5157C32.1094 29.1629 32.6341 29.6875 33.2812 29.6875H34.0625C35.5727 29.6875 36.7969 28.4633 36.7969 26.9532C36.7969 25.443 35.5727 24.2188 34.0625 24.2188ZM6.8325 18.3029C6.67687 18.4107 6.54968 18.5547 6.46185 18.7224C6.37401 18.8902 6.32812 19.0767 6.32813 19.2661V21.875H6.71875C8.65727 21.875 10.2344 23.4522 10.2344 25.3907V28.5157C10.2344 30.4542 8.65727 32.0313 6.71875 32.0313H6.32813V34.5004C6.32812 34.739 6.40092 34.9719 6.5368 35.1679C6.67268 35.364 6.86515 35.5139 7.08852 35.5977L18.8281 40V22.2625L7.91148 18.1688C7.7342 18.1022 7.54341 18.0797 7.35549 18.103C7.16757 18.1264 6.98811 18.1949 6.8325 18.3029Z" fill="white"/>
<path d="M29.7656 28.5157V25.3907C29.7656 23.4522 31.3427 21.8751 33.2812 21.8751H33.6719V19.2661C33.6719 19.0768 33.626 18.8902 33.5382 18.7225C33.4503 18.5547 33.3231 18.4108 33.1675 18.3029C33.0119 18.1951 32.8324 18.1265 32.6445 18.1032C32.4566 18.0798 32.2658 18.1024 32.0885 18.1689L21.1719 22.2626V40.0001L32.9115 35.5978C33.1348 35.514 33.3273 35.3641 33.4632 35.168C33.5991 34.9719 33.6719 34.739 33.6719 34.5005V32.0314H33.2812C31.3427 32.0314 29.7656 30.4542 29.7656 28.5157ZM7.89062 28.5157V25.3907C7.89062 24.7435 7.36594 24.2189 6.71875 24.2189H5.9375C4.42734 24.2189 3.20312 25.4431 3.20312 26.9532C3.20312 28.4634 4.42734 29.6876 5.9375 29.6876H6.71875C7.36594 29.6876 7.89062 29.1629 7.89062 28.5157Z" fill="white"/>
</svg>
