<svg width="40" height="40" viewBox="0 0 40 40" fill="none" xmlns="http://www.w3.org/2000/svg">
<path d="M24.6797 32.3047C24.6797 32.7109 24.5312 33.0859 24.2734 33.3672H10.4609C9.54687 32.3828 10.3047 30.6641 11.6641 30.6953H23.0703C23.9609 30.6953 24.6797 31.4141 24.6797 32.3047ZM10.4609 34.4531C9.54687 35.4375 10.3047 37.1562 11.6641 37.125H23.0703C24.4297 37.1562 25.1875 35.4297 24.2656 34.4531H10.4609ZM15 39.9219H19.7422C20.7578 39.9219 21.5937 39.1797 21.7578 38.2109H12.9844C13.1484 39.1797 13.9844 39.9219 15 39.9219ZM25.2578 23.9219C23.5859 25.375 22.5625 27.4219 22.3516 29.6094H18.8906V7.73438C18.8906 7.27344 19.2812 6.90625 19.7422 6.94531C28.2891 7.70312 31.625 18.4297 25.2578 23.9219ZM26.7734 16.6094C26.7969 13.3281 24.6406 10.25 21.5312 9.17969C21.2109 9.0625 20.8437 9.23438 20.7344 9.5625C20.6172 9.89062 20.7812 10.2422 21.1094 10.3594C23.7187 11.2578 25.5391 13.8438 25.5156 16.6094C25.5312 17.4297 26.7656 17.4297 26.7734 16.6094ZM10.875 25.8906C11.2812 25.4688 12.2031 24.9219 12.5469 25.6953C12.6719 26.0156 12.5078 26.3828 12.1797 26.5078C10.7734 27.1484 11.5 29.0469 12.375 29.6094H15.1797C15.7812 29.1719 16.1719 28.4688 16.1719 27.6719V9.96094C16.1562 7.40625 12.6562 6.65625 11.6094 8.97656C12.4531 9.14062 14.9453 11.2656 13.1562 11.6641C12.5625 11.6406 12.4297 10.8516 11.9609 10.5859C9.60937 8.72656 6.26562 11.2734 7.28124 13.9844C8.34374 13.7891 9.74218 14.3125 10.4531 15.2109C10.8047 15.5938 10.4844 16.2578 9.97655 16.2422C9.79687 16.2422 9.62499 16.1641 9.49999 16.0156C9.33593 15.8203 8.96874 15.4609 8.39062 15.2969C7.98437 15.1641 7.42187 15.1953 7.09374 15.3047C3.85155 16.25 3.58593 20.8594 6.67968 22.1797C7.10155 21.5 9.5703 19.6172 10.0156 20.9375C10.1016 21.2734 9.89062 21.6172 9.56249 21.6953C5.99999 22.5781 6.49218 27.5781 10.1641 27.6797C10.1719 27.0703 10.3672 26.3984 10.875 25.8906ZM27.3047 8.91406C27.4687 8.91406 27.625 8.85156 27.75 8.73438L30.6484 5.83594C31.2187 5.24219 30.3516 4.375 29.7656 4.95312L26.8672 7.85156C26.4609 8.21875 26.7656 8.92969 27.3047 8.91406ZM34.8828 16.0703H30.7891C29.9609 16.0859 29.9687 17.3125 30.7891 17.3203H34.8828C35.7109 17.3125 35.7031 16.0859 34.8828 16.0703ZM27.7422 24.6719C27.1484 24.1016 26.2812 24.9688 26.8594 25.5547L29.7578 28.4531C30.3437 29.0313 31.2187 28.1484 30.6406 27.5703C30.6406 27.5625 27.7422 24.6719 27.7422 24.6719ZM18.8906 5.42969C19.2344 5.42969 19.5156 5.14844 19.5156 4.80469V0.703125C19.5156 0.359375 19.2344 0.078125 18.8906 0.078125C18.5469 0.078125 18.2656 0.359375 18.2656 0.703125V4.79688C18.2656 5.14844 18.5469 5.42969 18.8906 5.42969Z" fill="white"/>
</svg>
