<svg width="28" height="28" viewBox="0 0 28 28" fill="none" xmlns="http://www.w3.org/2000/svg">
<g clip-path="url(#clip0_307_85)">
<path d="M14 14.875C12.9616 14.875 11.9466 14.5671 11.0833 13.9902C10.2199 13.4133 9.54699 12.5934 9.14963 11.6341C8.75227 10.6748 8.64831 9.61918 8.85088 8.60078C9.05345 7.58238 9.55347 6.64692 10.2877 5.91269C11.0219 5.17847 11.9574 4.67845 12.9758 4.47588C13.9942 4.27331 15.0498 4.37727 16.0091 4.77463C16.9684 5.17199 17.7883 5.8449 18.3652 6.70826C18.9421 7.57162 19.25 8.58665 19.25 9.625C19.25 11.0174 18.6969 12.3527 17.7123 13.3373C16.7277 14.3219 15.3924 14.875 14 14.875ZM14 6.125C13.3078 6.125 12.6311 6.33027 12.0555 6.71486C11.4799 7.09944 11.0313 7.64607 10.7664 8.28561C10.5015 8.92515 10.4322 9.62888 10.5673 10.3078C10.7023 10.9868 11.0356 11.6104 11.5251 12.0999C12.0146 12.5894 12.6383 12.9227 13.3172 13.0578C13.9961 13.1928 14.6999 13.1235 15.3394 12.8586C15.9789 12.5937 16.5256 12.1451 16.9101 11.5695C17.2947 10.9939 17.5 10.3172 17.5 9.625C17.5 8.69674 17.1313 7.80651 16.4749 7.15013C15.8185 6.49375 14.9283 6.125 14 6.125Z" fill="#007BB3"/>
<path d="M13.9996 27.1251C12.0592 27.1238 10.1433 26.6923 8.38969 25.8616C6.6361 25.031 5.08851 23.8219 3.85832 22.3213L3.40332 21.7613L3.85832 21.2101C5.08955 19.7115 6.6376 18.5044 8.39112 17.6756C10.1446 16.8468 12.0601 16.417 13.9996 16.417C15.9391 16.417 17.8545 16.8468 19.608 17.6756C21.3615 18.5044 22.9096 19.7115 24.1408 21.2101L24.5958 21.7613L24.1408 22.3213C22.9106 23.8219 21.363 25.031 19.6095 25.8616C17.8559 26.6923 15.9399 27.1238 13.9996 27.1251ZM5.69582 21.7701C6.76003 22.9093 8.04706 23.8177 9.47702 24.4387C10.907 25.0598 12.4493 25.3802 14.0083 25.3802C15.5673 25.3802 17.1097 25.0598 18.5396 24.4387C19.9696 23.8177 21.2566 22.9093 22.3208 21.7701C21.2566 20.6308 19.9696 19.7225 18.5396 19.1014C17.1097 18.4804 15.5673 18.1599 14.0083 18.1599C12.4493 18.1599 10.907 18.4804 9.47702 19.1014C8.04706 19.7225 6.76003 20.6308 5.69582 21.7701Z" fill="#007BB3"/>
<path d="M14 27.125C11.0186 27.127 8.12543 26.1139 5.79657 24.2525C3.46772 22.3911 1.84198 19.7922 1.18694 16.8837C0.531899 13.9752 0.886587 10.9304 2.19263 8.25034C3.49867 5.57028 5.67823 3.41473 8.37259 2.13845C11.0669 0.862178 14.1155 0.541237 17.0166 1.22845C19.9177 1.91567 22.4983 3.57009 24.3338 5.91943C26.1693 8.26876 27.1503 11.173 27.1153 14.1541C27.0803 17.1353 26.0314 20.0157 24.1412 22.3213C22.911 23.8218 21.3634 25.0309 19.6099 25.8616C17.8563 26.6922 15.9403 27.1237 14 27.125ZM14 2.62501C11.7502 2.62501 9.55097 3.29214 7.68036 4.54204C5.80975 5.79194 4.35179 7.56848 3.49084 9.64699C2.6299 11.7255 2.40463 14.0126 2.84354 16.2192C3.28245 18.4257 4.36581 20.4525 5.95663 22.0433C7.54746 23.6342 9.57429 24.7175 11.7808 25.1564C13.9874 25.5953 16.2745 25.3701 18.353 24.5091C20.4315 23.6482 22.208 22.1902 23.4579 20.3196C24.7078 18.449 25.375 16.2498 25.375 14C25.375 10.9832 24.1765 8.0899 22.0433 5.95667C19.9101 3.82344 17.0168 2.62501 14 2.62501Z" fill="#007BB3"/>
<path d="M4.53223 21.7697C4.53223 21.7697 13.3435 31.6134 22.3122 22.7497L23.4672 21.7697C23.4672 21.7697 15.9772 13.9997 8.37348 18.6634L4.53223 21.7697Z" fill="#007BB3"/>
<path d="M14 14C16.4162 14 18.375 12.0412 18.375 9.625C18.375 7.20875 16.4162 5.25 14 5.25C11.5838 5.25 9.625 7.20875 9.625 9.625C9.625 12.0412 11.5838 14 14 14Z" fill="#007BB3"/>
</g>
<defs>
<clipPath id="clip0_307_85">
<rect width="28" height="28" fill="white"/>
</clipPath>
</defs>
</svg>
