<svg width="75" height="75" viewBox="0 0 75 75" fill="none" xmlns="http://www.w3.org/2000/svg">
<ellipse cx="37.5" cy="37.0253" rx="37.5" ry="37.0253" fill="#007BB3"/>
<path d="M42.7656 19.4236H21.5156C19.5702 19.4236 18 20.9938 18 22.9392V37.0017C18 38.9469 19.5702 40.5173 21.5156 40.5173H22.6875V44.033C22.6875 44.8796 23.5641 45.4927 24.4219 45.0642C24.4453 45.0408 24.4923 45.0408 24.5157 45.0173C30.9623 40.6942 29.5175 41.6581 30.961 40.7048C31.1484 40.5876 31.3594 40.5173 31.5938 40.5173H42.7656C44.711 40.5173 46.2812 38.9469 46.2812 37.0017V22.9392C46.2812 20.9938 44.711 19.4236 42.7656 19.4236ZM33.3906 33.4861H23.8594C22.3146 33.4861 22.3083 31.1423 23.8594 31.1423H33.3906C34.9354 31.1423 34.9417 33.4861 33.3906 33.4861ZM40.4219 28.7986H23.8594C22.3146 28.7986 22.3083 26.4548 23.8594 26.4548H40.4219C41.9666 26.4548 41.973 28.7986 40.4219 28.7986Z" fill="white"/>
<path d="M54.4844 28.7986H48.625V37.0017C48.625 40.2361 46 42.8611 42.7656 42.8611H31.9453L29.7188 44.3376V46.3767C29.7188 48.3219 31.289 49.8923 33.2344 49.8923H44.7577L51.4843 54.3923C52.4024 54.902 53.3125 54.2821 53.3125 53.408V49.8923H54.4844C56.4298 49.8923 58 48.3219 58 46.3767V32.3142C58 30.3689 56.4298 28.7986 54.4844 28.7986Z" fill="white"/>
</svg>
