<svg width="64" height="56" viewBox="0 0 64 56" fill="none" xmlns="http://www.w3.org/2000/svg">
<path fill-rule="evenodd" clip-rule="evenodd" d="M44.652 50.0809V53.7892C44.652 54.3755 44.4167 54.9378 43.9981 55.3524C43.5794 55.767 43.0115 56 42.4194 56C41.8273 56 41.2594 55.767 40.8407 55.3524C40.422 54.9378 40.1868 54.3755 40.1868 53.7892V50.1045H43.9078C44.1578 50.1045 44.4049 50.0956 44.652 50.0809ZM40.1868 50.1045H20.0936C17.133 50.1045 14.2937 48.9399 12.2002 46.8669C10.1068 44.7938 8.93066 41.9822 8.93066 39.0505V29.9656L25.94 39.2716C27.8028 40.2641 29.8852 40.7837 32.0007 40.7837C34.1161 40.7837 36.1985 40.2641 38.0614 39.2716L40.1868 38.1102V50.1045ZM44.652 35.6665L55.0707 29.9656V39.0505C55.0709 41.8548 53.9948 44.5544 52.0603 46.6024C50.1259 48.6505 47.4776 49.894 44.652 50.0809V35.6665Z" fill="#4D93DF"/>
<path fill-rule="evenodd" clip-rule="evenodd" d="M40.1865 34.7411L36.6203 36.6925C35.2005 37.45 33.613 37.8465 32.0003 37.8465C30.3876 37.8465 28.8001 37.45 27.3804 36.6925L2.63147 23.1506C0.946615 22.2279 0 20.6126 0 18.9235C0 17.2315 0.946615 15.6162 2.63147 14.6965L27.3804 1.15164C28.8006 0.395672 30.3879 0 32.0003 0C33.6127 0 35.2 0.395672 36.6203 1.15164L61.3692 14.6965C63.054 15.6162 64.0006 17.2315 64.0006 18.9235C64.0006 20.6126 63.054 22.2279 61.3692 23.1506L44.6516 32.2974V30.2074C44.6518 29.9171 44.5941 29.6297 44.4817 29.3615C44.3693 29.0934 44.2045 28.85 43.9967 28.6451L33.578 18.3281C33.3708 18.1229 33.1249 17.9602 32.8542 17.8491C32.5835 17.7381 32.2933 17.681 32.0003 17.681C31.7073 17.681 31.4172 17.7381 31.1465 17.8491C30.8758 17.9602 30.6298 18.1229 30.4226 18.3281C30.2155 18.5332 30.0511 18.7768 29.939 19.0449C29.8268 19.3129 29.7691 19.6002 29.7691 19.8904C29.7691 20.1805 29.8268 20.4678 29.939 20.7359C30.0511 21.0039 30.2155 21.2475 30.4226 21.4527L40.1865 31.1242V34.7411Z" fill="#4D93DF"/>
</svg>
