<svg width="61" height="56" viewBox="0 0 61 56" fill="none" xmlns="http://www.w3.org/2000/svg">
<path fill-rule="evenodd" clip-rule="evenodd" d="M40.4564 30.4894C43.1026 35.7587 45.0063 41.1132 46.2954 46.5381C46.7232 48.3385 44.6506 49.6792 43.1838 48.5511C41.0831 46.9352 39.1136 45.2272 37.3242 43.393C37.3091 43.378 37.2982 43.3594 37.2925 43.3389C37.2867 43.3184 37.2864 43.2968 37.2915 43.2762L40.2198 30.5178C40.2463 30.4024 40.4032 30.3835 40.4564 30.4894ZM48.959 3.35908C47.2575 3.35908 45.8696 4.74693 45.8696 6.44847V17.8569C45.8699 17.8802 45.8636 17.9032 45.8515 17.9231C45.8393 17.943 45.8217 17.9591 45.8008 17.9695L40.69 20.5966C40.6693 20.6073 40.6519 20.6234 40.6397 20.6433C40.6276 20.6631 40.6211 20.686 40.6211 20.7093C40.6211 20.7326 40.6276 20.7554 40.6397 20.7753C40.6519 20.7952 40.6693 20.8113 40.69 20.822L45.8008 23.4491C45.8217 23.4595 45.8393 23.4756 45.8515 23.4955C45.8636 23.5154 45.8699 23.5384 45.8696 23.5617V29.7566C45.8696 31.4582 47.2575 32.846 48.959 32.846H56.5142C57.9935 32.846 59.2375 31.8344 59.5388 30.3861C61.1682 22.5561 61.2862 14.3964 59.5303 5.82822C59.2327 4.37586 57.9864 3.35908 56.5038 3.35908H48.959ZM50.6377 11.6808C50.3857 11.6808 50.144 11.5807 49.9658 11.4025C49.7877 11.2243 49.6876 10.9827 49.6876 10.7307C49.6876 10.4787 49.7877 10.237 49.9658 10.0589C50.144 9.88068 50.3857 9.78058 50.6377 9.78058H55.8917C56.1437 9.78058 56.3853 9.88068 56.5635 10.0589C56.7417 10.237 56.8418 10.4787 56.8418 10.7307C56.8418 10.9827 56.7417 11.2243 56.5635 11.4025C56.3853 11.5807 56.1437 11.6808 55.8917 11.6808H50.6377ZM50.6377 19.0525C50.3857 19.0525 50.144 18.9524 49.9658 18.7743C49.7877 18.5961 49.6876 18.3544 49.6876 18.1024C49.6876 17.8504 49.7877 17.6088 49.9658 17.4306C50.144 17.2524 50.3857 17.1523 50.6377 17.1523H55.8917C56.1437 17.1523 56.3853 17.2524 56.5635 17.4306C56.7417 17.6088 56.8418 17.8504 56.8418 18.1024C56.8418 18.3544 56.7417 18.5961 56.5635 18.7743C56.3853 18.9524 56.1437 19.0525 55.8917 19.0525H50.6377ZM50.6377 26.4243C50.3857 26.4243 50.144 26.3242 49.9658 26.146C49.7877 25.9678 49.6876 25.7262 49.6876 25.4742C49.6876 25.2222 49.7877 24.9805 49.9658 24.8023C50.144 24.6242 50.3857 24.5241 50.6377 24.5241H55.8917C56.1437 24.5241 56.3853 24.6242 56.5635 24.8023C56.7417 24.9805 56.8418 25.2222 56.8418 25.4742C56.8418 25.7262 56.7417 25.9678 56.5635 26.146C56.3853 26.3242 56.1437 26.4243 55.8917 26.4243H50.6377ZM39.1932 15.5354C39.1739 15.5467 39.1521 15.5528 39.1297 15.553C39.1074 15.5531 39.0854 15.5474 39.066 15.5363C39.0466 15.5252 39.0305 15.5092 39.0193 15.4899C39.0081 15.4705 39.0023 15.4486 39.0023 15.4263V6.14124C39.0023 6.11891 39.0081 6.09696 39.0193 6.07764C39.0305 6.05831 39.0466 6.04229 39.066 6.0312C39.0854 6.02012 39.1074 6.01437 39.1297 6.01453C39.1521 6.0147 39.1739 6.02078 39.1932 6.03214L43.0677 8.31501C43.0869 8.32596 43.1028 8.34186 43.1137 8.36105C43.1247 8.38024 43.1303 8.40201 43.13 8.42411V13.1434C43.1303 13.1655 43.1247 13.1873 43.1137 13.2065C43.1028 13.2256 43.0869 13.2415 43.0677 13.2525L39.1932 15.5354ZM7.1592 15.5354L3.28483 13.2525C3.26564 13.2415 3.24973 13.2256 3.23876 13.2065C3.22779 13.1873 3.22217 13.1655 3.22247 13.1434V8.42411C3.22247 8.37805 3.2451 8.33845 3.28483 8.31501L7.1592 6.03214C7.17843 6.02078 7.20032 6.0147 7.22265 6.01453C7.24498 6.01437 7.26696 6.02012 7.28635 6.0312C7.30574 6.04229 7.32185 6.05831 7.33304 6.07764C7.34423 6.09696 7.3501 6.11891 7.35006 6.14124V15.4263C7.35014 15.4486 7.3443 15.4706 7.33312 15.4899C7.32194 15.5093 7.30582 15.5253 7.28642 15.5364C7.26702 15.5475 7.24502 15.5533 7.22267 15.5531C7.20032 15.5529 7.17842 15.5468 7.1592 15.5354ZM17.5596 7.27345C19.4983 7.27345 21.0699 8.84515 21.0699 10.7838C21.0699 12.7225 19.4982 14.2941 17.5596 14.2941C15.6209 14.2941 14.0493 12.7224 14.0493 10.7838C14.0493 8.84515 15.621 7.27345 17.5596 7.27345ZM28.7928 7.27345C30.7315 7.27345 32.3031 8.84515 32.3031 10.7838C32.3031 12.7225 30.7315 14.2941 28.7928 14.2941C26.854 14.2941 25.2825 12.7224 25.2825 10.7838C25.2823 8.84515 26.854 7.27345 28.7928 7.27345ZM13.0476 0.949736C10.7491 1.4097 9.13471 3.37901 9.13471 5.72316V15.8551C9.13471 18.2049 10.7577 20.1783 13.0634 20.6316C19.5665 21.9104 26.2976 21.8697 33.2471 20.566C35.5712 20.1301 37.2175 18.1462 37.2175 15.7814V5.80304C37.2175 3.44259 35.5778 1.46169 33.259 1.02072C26.2606 -0.310158 19.5211 -0.345582 13.0476 0.949736ZM13.6567 42.2675L11.9303 33.019C11.4508 30.45 13.2275 28.035 15.8193 27.72C20.7118 27.1253 25.6728 27.141 30.5308 27.7281C33.1088 28.0396 34.9054 30.4383 34.4222 33.0273L32.707 42.2163C32.3537 44.1093 30.9137 45.522 29.0184 45.8381C25.0981 46.4918 21.1422 46.5556 17.3093 45.8845C15.4243 45.5544 14.0083 44.1526 13.6567 42.2675ZM23.1762 23.017C17.2828 23.017 11.8489 24.7134 7.49027 27.57C7.46845 27.584 7.45153 27.6044 7.44185 27.6285C7.43217 27.6525 7.43022 27.679 7.43626 27.7042L11.8626 46.9889C13.0873 52.3252 17.7012 56 23.1762 56C28.6512 56 33.2649 52.3252 34.4898 46.9889L38.9161 27.7042C38.9222 27.679 38.9203 27.6525 38.9106 27.6284C38.9009 27.6044 38.884 27.5839 38.8621 27.57C34.5035 24.7134 29.0696 23.017 23.1762 23.017ZM32.5485 31.6178C32.3039 30.545 31.4016 29.7455 30.308 29.6133C25.5314 29.0361 20.8494 29.021 16.0419 29.6053C14.5301 29.789 13.5144 31.1832 13.7932 32.6775L15.5196 41.9262C15.7216 43.0084 16.486 43.7584 17.5492 43.9954C17.5678 43.9997 17.587 43.9996 17.6055 43.9954C17.624 43.9911 17.6414 43.9827 17.6562 43.9709C17.671 43.959 17.683 43.9439 17.6911 43.9267C17.6993 43.9096 17.7035 43.8908 17.7034 43.8718V40.1352C17.7035 39.8969 17.793 39.6674 17.9544 39.492C18.1157 39.3166 18.337 39.2083 18.5745 39.1885V39.1851H18.6534C18.9054 39.1851 19.1471 39.2852 19.3252 39.4634C19.5034 39.6416 19.6035 39.8832 19.6035 40.1352V44.1774C19.6035 44.2426 19.6523 44.2966 19.7172 44.3033C20.5156 44.3859 21.3219 44.4372 22.1361 44.4569C22.153 44.4574 22.1698 44.4544 22.1856 44.4483C22.2013 44.4421 22.2157 44.4329 22.2278 44.4211C22.2399 44.4092 22.2495 44.3951 22.256 44.3795C22.2625 44.3639 22.2659 44.3472 22.2658 44.3303V36.8198C22.2658 36.5816 22.3553 36.3521 22.5166 36.1767C22.6778 36.0014 22.8991 35.893 23.1364 35.8731V35.8697H23.2159C23.4679 35.8697 23.7096 35.9698 23.8877 36.148C24.0659 36.3262 24.166 36.5678 24.166 36.8198V44.3093C24.166 44.3817 24.2257 44.4388 24.298 44.4357C25.1059 44.4007 25.9123 44.3375 26.7157 44.2464C26.7467 44.243 26.7753 44.2283 26.7961 44.2051C26.8169 44.1818 26.8283 44.1517 26.8282 44.1206V33.5164C26.8282 33.2782 26.9177 33.0487 27.079 32.8733C27.2402 32.698 27.4614 32.5896 27.6988 32.5697V32.5663H27.7783C28.0303 32.5663 28.2719 32.6664 28.4501 32.8446C28.6283 33.0228 28.7284 33.2644 28.7284 33.5164V43.8089C28.7283 43.828 28.7326 43.8468 28.7409 43.864C28.7491 43.8812 28.7612 43.8963 28.7761 43.9082C28.7911 43.9201 28.8085 43.9284 28.8272 43.9326C28.8458 43.9368 28.8651 43.9366 28.8837 43.9323C29.9041 43.6945 30.6493 42.9174 30.8438 41.8749L32.559 32.6859C32.6289 32.3113 32.6251 31.954 32.5485 31.6178ZM5.89594 30.4894C5.94914 30.3835 6.10606 30.4024 6.13259 30.5179L9.0609 43.2763C9.06597 43.297 9.06563 43.3186 9.05989 43.339C9.05416 43.3595 9.04323 43.3781 9.02817 43.3931C7.2388 45.2273 5.26923 46.9353 3.1686 48.5512C1.70182 49.6795 -0.370665 48.3387 0.0569771 46.5383C1.3461 41.1132 3.24981 35.7587 5.89594 30.4894Z" fill="#9848FF"/>
</svg>
