<svg width="56" height="56" viewBox="0 0 56 56" fill="none" xmlns="http://www.w3.org/2000/svg">
<g clip-path="url(#clip0_390_281)">
<path d="M28 31.08C29.7079 31.08 31.08 29.694 31.08 28C31.08 26.3059 29.708 24.9199 28 24.9199C26.3059 24.9199 24.9199 26.3059 24.9199 28C24.9199 29.694 26.3061 31.08 28 31.08Z" fill="#A7CE4A"/>
<path d="M27.9999 0C12.53 0 0 12.53 0 27.9999C0 43.4559 12.53 55.9999 27.9999 55.9999C43.4698 55.9999 55.9999 43.4559 55.9999 27.9999C56 12.53 43.47 0 27.9999 0ZM34.1319 34.1319L11.1999 44.7999L21.8679 21.8679L44.7999 11.1999L34.1319 34.1319Z" fill="#A7CE4A"/>
</g>
<defs>
<clipPath id="clip0_390_281">
<rect width="56" height="56" fill="white"/>
</clipPath>
</defs>
</svg>
